<?xml version="1.0" encoding="utf-8"?>
<!-- Generator: Adobe Illustrator 18.1.1, SVG Export Plug-In . SVG Version: 6.00 Build 0)  -->
<svg version="1.1" id="Ebene_1" xmlns="http://www.w3.org/2000/svg" xmlns:xlink="http://www.w3.org/1999/xlink" x="0px" y="0px"
	 width="16px" height="16px" viewBox="0 0 16 16" enable-background="new 0 0 16 16" xml:space="preserve">
<g>
	<path d="M15.64,13.54l-3.83-3.83c0.58-0.95,0.91-2.06,0.91-3.25C12.72,3,9.73,0,6.26,0C2.8,0,0,2.8,0,6.26
		s3,6.46,6.46,6.46c1.15,0,2.23-0.31,3.15-0.85l3.85,3.85c0.38,0.38,0.99,0.38,1.36,0l0.95-0.95
		C16.15,14.39,16.02,13.91,15.64,13.54z M1.93,6.26c0-2.4,1.94-4.34,4.34-4.34s4.53,2.13,4.53,4.53s-1.94,4.34-4.34,4.34
		C4.06,10.79,1.93,8.66,1.93,6.26z"/>
</g>
</svg>